<?xml version="1.0" encoding="UTF-8"?>
<svg width="200" height="700" viewBox="0 0 200 700" xmlns="http://www.w3.org/2000/svg">
  <!-- Sword Blade -->
  <defs>
    <linearGradient id="bladeGradient" x1="0%" y1="0%" x2="0%" y2="100%">
      <stop offset="0%" style="stop-color:#FFD700;stop-opacity:1" />
      <stop offset="50%" style="stop-color:#C0C0C0;stop-opacity:1" />
      <stop offset="100%" style="stop-color:#FFD700;stop-opacity:1" />
    </linearGradient>
    <linearGradient id="handleGradient" x1="0%" y1="0%" x2="0%" y2="100%">
      <stop offset="0%" style="stop-color:#8B4513;stop-opacity:1" />
      <stop offset="50%" style="stop-color:#654321;stop-opacity:1" />
      <stop offset="100%" style="stop-color:#8B4513;stop-opacity:1" />
    </linearGradient>
    <filter id="glow" x="-20%" y="-20%" width="140%" height="140%">
      <feGaussianBlur stdDeviation="3" result="blur" />
      <feComposite in="SourceGraphic" in2="blur" operator="over" />
    </filter>
  </defs>
  
  <!-- Sword Blade -->
  <path d="M90 50 L110 50 L105 550 L95 550 Z" fill="url(#bladeGradient)" stroke="#A0A0A0" stroke-width="2" filter="url(#glow)"/>
  
  <!-- Sword Guard -->
  <path d="M60 550 L140 550 L130 570 L70 570 Z" fill="url(#handleGradient)" stroke="#654321" stroke-width="2"/>
  
  <!-- Sword Handle -->
  <path d="M85 570 L115 570 L110 620 L90 620 Z" fill="url(#handleGradient)" stroke="#654321" stroke-width="2"/>
  
  <!-- Sword Pommel -->
  <ellipse cx="100" cy="620" rx="20" ry="15" fill="url(#handleGradient)" stroke="#654321" stroke-width="2"/>
  
  <!-- Blade Details -->
  <path d="M95 100 L105 100 L103 500 L97 500 Z" fill="#D0D0D0" stroke="#A0A0A0" stroke-width="1"/>
  
  <!-- Blade Edge -->
  <path d="M110 50 L105 550" stroke="#A0A0A0" stroke-width="1" stroke-dasharray="5,5"/>
  <path d="M90 50 L95 550" stroke="#A0A0A0" stroke-width="1" stroke-dasharray="5,5"/>
  
  <!-- Decorative Elements -->
  <circle cx="100" cy="100" r="10" fill="#FFD700" stroke="#B8860B" stroke-width="1"/>
  <circle cx="100" cy="200" r="8" fill="#FFD700" stroke="#B8860B" stroke-width="1"/>
  <circle cx="100" cy="300" r="10" fill="#FFD700" stroke="#B8860B" stroke-width="1"/>
  <circle cx="100" cy="400" r="8" fill="#FFD700" stroke="#B8860B" stroke-width="1"/>
  <circle cx="100" cy="500" r="10" fill="#FFD700" stroke="#B8860B" stroke-width="1"/>
  
  <!-- Guard Decoration -->
  <path d="M70 550 L60 560 L70 570" fill="#FFD700" stroke="#B8860B" stroke-width="1"/>
  <path d="M130 550 L140 560 L130 570" fill="#FFD700" stroke="#B8860B" stroke-width="1"/>
</svg> 