<?xml version="1.0" encoding="UTF-8"?>
<svg width="200" height="200" viewBox="0 0 200 200" xmlns="http://www.w3.org/2000/svg">
    <defs>
        <linearGradient id="goldGradient" x1="0%" y1="0%" x2="100%" y2="100%">
            <stop offset="0%" style="stop-color:#FFD700"/>
            <stop offset="100%" style="stop-color:#FFA500"/>
        </linearGradient>
    </defs>
    <path d="M100 20
             C60 20, 20 60, 20 100
             C20 140, 60 180, 100 180
             C140 180, 180 140, 180 100
             C180 60, 140 20, 100 20
             Z" fill="black"/>
    <path d="M100 40
             C70 40, 40 70, 40 100
             C40 130, 70 160, 100 160
             C130 160, 160 130, 160 100
             C160 70, 130 40, 100 40
             Z" fill="url(#goldGradient)"/>
    <path d="M100 60
             L85 85
             L100 110
             L115 85
             Z" fill="black"/>
</svg> 